<?xml version="1.0" standalone="no"?>
<!DOCTYPE svg PUBLIC "-//W3C//DTD SVG 20010904//EN"
 "http://www.w3.org/TR/2001/REC-SVG-20010904/DTD/svg10.dtd">
<svg version="1.0" xmlns="http://www.w3.org/2000/svg"
 width="128.000000pt" height="128.000000pt" viewBox="0 0 128.000000 128.000000"
 preserveAspectRatio="xMidYMid meet">
<metadata>
Created by potrace 1.11, written by Peter Selinger 2001-2013
</metadata>
<g transform="translate(0.000000,128.000000) scale(0.100000,-0.100000)"
fill="#000000" stroke="none">
<path d="M9 1158 c-1 -2 -3 -70 -5 -152 l-4 -149 52 7 c29 4 71 10 93 12 22 3
64 9 93 13 l52 8 1 -301 c0 -166 1 -339 2 -386 l2 -85 193 0 c105 0 192 2 193
5 0 3 2 13 4 23 3 19 23 139 30 187 8 52 36 226 40 249 2 13 7 44 11 67 l6 43
51 -29 51 -29 53 30 c47 27 53 28 54 12 1 -22 4 -45 13 -103 3 -25 9 -63 11
-85 3 -22 10 -65 15 -95 5 -30 12 -73 14 -95 18 -134 25 -178 30 -182 4 -4
120 -7 173 -4 l22 1 1 354 c0 305 -2 355 -15 366 -8 7 -41 12 -73 12 -31 0
-63 5 -70 10 -7 6 -30 8 -55 4 -23 -4 -53 -8 -67 -10 -32 -5 -103 9 -160 33
-64 27 -133 34 -172 18 -36 -14 -54 -15 -111 -3 -54 12 -46 16 53 30 59 8 154
20 165 20 6 1 11 31 11 68 l2 67 -37 5 c-20 3 -70 8 -111 11 -41 4 -86 8 -100
10 -14 2 -63 6 -110 10 -47 3 -101 8 -120 10 -36 4 -106 11 -217 20 -35 3 -63
4 -64 3z"/>
<path d="M931 1127 c-66 -34 -84 -120 -38 -181 45 -58 135 -60 181 -5 38 44
43 90 16 137 -13 22 -33 45 -47 51 -32 14 -82 14 -112 -2z"/>
</g>
</svg>
